<svg width="86" height="26" viewBox="0 0 86 26" fill="none" xmlns="http://www.w3.org/2000/svg">
<g id="PING.">
<path d="M19.664 8.648C19.664 10.952 18.864 12.744 17.264 14.024C15.6853 15.2827 13.5947 15.912 10.992 15.912H6.192C5.95733 15.912 5.84 16.0293 5.84 16.264V24.264C5.84 24.7547 5.56267 25 5.008 25H0.912C0.656 25 0.474667 24.9467 0.368 24.84C0.282667 24.7333 0.24 24.5733 0.24 24.36V1.864C0.24 1.45867 0.410667 1.256 0.752 1.256H10.352C12.1227 1.256 13.7013 1.53333 15.088 2.088C16.496 2.62133 17.6053 3.44267 18.416 4.552C19.248 5.66133 19.664 7.02667 19.664 8.648ZM13.904 8.552C13.904 7.464 13.552 6.64267 12.848 6.088C12.144 5.53333 11.1947 5.256 10 5.256H6.448C6.23467 5.256 6.07467 5.29867 5.968 5.384C5.88267 5.46933 5.84 5.61867 5.84 5.832V11.304C5.84 11.5173 5.872 11.6773 5.936 11.784C6 11.8693 6.11733 11.912 6.288 11.912H10.224C11.3547 11.912 12.2507 11.6133 12.912 11.016C13.5733 10.4187 13.904 9.59733 13.904 8.552ZM28.203 1.256C28.5443 1.256 28.715 1.448 28.715 1.832V24.232C28.715 24.5093 28.651 24.712 28.523 24.84C28.395 24.9467 28.171 25 27.851 25H23.819C23.563 25 23.3817 24.9467 23.275 24.84C23.1683 24.7333 23.115 24.5627 23.115 24.328V1.864C23.115 1.45867 23.2857 1.256 23.627 1.256H28.203ZM52.6008 1.256C52.8781 1.256 53.0168 1.416 53.0168 1.736V24.488C53.0168 24.6373 52.9528 24.7653 52.8248 24.872C52.7181 24.9573 52.5794 25 52.4088 25H49.1768C48.9848 25 48.8354 24.9787 48.7288 24.936C48.6221 24.8933 48.5048 24.7867 48.3768 24.616L38.1688 10.28C38.0834 10.1733 37.9981 10.1307 37.9128 10.152C37.8488 10.1733 37.8168 10.2373 37.8168 10.344V24.424V24.52C37.8168 24.6907 37.7634 24.8187 37.6568 24.904C37.5714 24.968 37.4114 25 37.1768 25H33.8488C33.4221 25 33.2088 24.8187 33.2088 24.456V1.864C33.2088 1.45867 33.4008 1.256 33.7848 1.256H37.6568C37.9128 1.256 38.0941 1.288 38.2008 1.352C38.3074 1.39467 38.4354 1.52267 38.5848 1.736L47.9928 15.144C48.1208 15.3147 48.2274 15.4 48.3128 15.4C48.4194 15.4 48.4728 15.2827 48.4728 15.048V1.832C48.4728 1.448 48.6648 1.256 49.0487 1.256H52.6008ZM67.346 25.32C65.1913 25.32 63.3033 24.8187 61.682 23.816C60.082 22.8133 58.8447 21.4053 57.97 19.592C57.0953 17.7573 56.658 15.6347 56.658 13.224C56.658 10.7493 57.1167 8.584 58.034 6.728C58.9513 4.872 60.242 3.44267 61.906 2.44C63.57 1.43733 65.49 0.935999 67.666 0.935999C69.33 0.935999 70.8447 1.256 72.21 1.896C73.5967 2.536 74.7167 3.37867 75.57 4.424C76.4447 5.448 76.9887 6.54667 77.202 7.72C77.2447 7.848 77.266 8.008 77.266 8.2C77.266 8.43467 77.1273 8.56267 76.85 8.584L72.626 9.224C72.4553 9.224 72.338 9.192 72.274 9.128C72.21 9.04267 72.1567 8.904 72.114 8.712C71.9007 7.60267 71.3993 6.68533 70.61 5.96C69.8207 5.23467 68.7967 4.872 67.538 4.872C65.8953 4.872 64.6473 5.52267 63.794 6.824C62.9407 8.12533 62.514 10.1947 62.514 13.032C62.514 15.9973 62.962 18.1307 63.858 19.432C64.754 20.7333 66.0447 21.384 67.73 21.384C69.01 21.384 70.034 21.0427 70.802 20.36C71.57 19.656 72.0713 18.7813 72.306 17.736L72.37 16.808C72.3913 16.7653 72.402 16.7013 72.402 16.616C72.402 16.424 72.2847 16.328 72.05 16.328H68.178C68.0073 16.328 67.8793 16.2853 67.794 16.2C67.7087 16.1147 67.666 15.976 67.666 15.784V13.384C67.666 13.0853 67.8367 12.936 68.178 12.936L76.722 12.968C77.0207 12.968 77.2447 13.0427 77.394 13.192C77.5647 13.32 77.65 13.5013 77.65 13.736V24.52C77.65 24.6693 77.6073 24.7867 77.522 24.872C77.4367 24.9573 77.3193 25 77.17 25H76.146C75.7833 25 75.506 24.8293 75.314 24.488L74.386 22.184C74.322 22.0347 74.2153 22.0453 74.066 22.216C73.3193 23.1333 72.4233 23.88 71.378 24.456C70.354 25.032 69.01 25.32 67.346 25.32Z" fill="#15202A"/>
<path d="M85.9685 24.232C85.9685 24.5093 85.8938 24.712 85.7445 24.84C85.6165 24.9467 85.3925 25 85.0725 25H81.2965C80.8272 25 80.5925 24.776 80.5925 24.328V20.264C80.5925 20.072 80.6352 19.9333 80.7205 19.848C80.8272 19.7413 80.9552 19.688 81.1045 19.688H85.4885C85.8085 19.688 85.9685 19.8693 85.9685 20.232V24.232Z" fill="#4C7BF3"/>
</g>
</svg>
